<?xml version="1.0" encoding="UTF-8" standalone="no"?>
<!-- Created with Inkscape (http://www.inkscape.org/) -->

<svg
   xmlns:dc="http://purl.org/dc/elements/1.1/"
   xmlns:cc="http://creativecommons.org/ns#"
   xmlns:rdf="http://www.w3.org/1999/02/22-rdf-syntax-ns#"
   xmlns:svg="http://www.w3.org/2000/svg"
   xmlns="http://www.w3.org/2000/svg"
   xmlns:sodipodi="http://sodipodi.sourceforge.net/DTD/sodipodi-0.dtd"
   xmlns:inkscape="http://www.inkscape.org/namespaces/inkscape"
   id="svg2985"
   version="1.1"
   inkscape:version="0.48.2 r9819"
   width="47"
   height="40"
   sodipodi:docname="lettre_e.png">
  <metadata
     id="metadata2991">
    <rdf:RDF>
      <cc:Work
         rdf:about="">
        <dc:format>image/svg+xml</dc:format>
        <dc:type
           rdf:resource="http://purl.org/dc/dcmitype/StillImage" />
        <dc:title></dc:title>
      </cc:Work>
    </rdf:RDF>
  </metadata>
  <defs
     id="defs2989" />
  <sodipodi:namedview
     pagecolor="#ffffff"
     bordercolor="#666666"
     borderopacity="1"
     objecttolerance="10"
     gridtolerance="10"
     guidetolerance="10"
     inkscape:pageopacity="0"
     inkscape:pageshadow="2"
     inkscape:window-width="1680"
     inkscape:window-height="1000"
     id="namedview2987"
     showgrid="false"
     inkscape:zoom="13.80626"
     inkscape:cx="16.976311"
     inkscape:cy="21.60536"
     inkscape:window-x="-8"
     inkscape:window-y="-8"
     inkscape:window-maximized="1"
     inkscape:current-layer="svg2985" />
  <g
     id="g2995"
     transform="matrix(0.95439821,0,0,1.0072473,-0.01877534,-0.08787338)">
    <path
       style="fill:#f9f9f9"
       d="M 0.08595274,30.75 C 0.14206999,24.710815 0.44137856,22.388059 0.94822745,24.058399 2.0336753,27.635535 4.0666794,31.266654 4.6547566,30.678577 4.9257504,30.407583 4.4392913,28.816389 3.5737363,27.14259 -1.6531637,17.03488 6.733494,7.1216859 22.045874,5.3081611 27.2461,4.6922712 27.2461,4.6922712 22.042818,11.846136 19.181013,15.780761 16.148156,19 15.303137,19 c -1.04481,0 -1.368814,0.64085 -1.012631,2.002894 0.288072,1.101591 -0.189703,4.233973 -1.061723,6.960848 -1.833049,5.732089 -0.810568,9.465608 3.013091,11.00209 C 17.848496,39.61143 15.831234,39.891515 9.25,39.936614 0,40 0,40 0.08595274,30.75 z M 29.398873,37.527392 C 34.855408,35.284108 40.464087,31.561336 35.5,33.477757 16.036795,40.991663 10.546765,38.898025 16.066617,26.066783 18.326597,20.813317 20.542908,20.031945 33.25,20.008692 35.8625,20.003911 38,19.55 38,19 38,18.411765 34.5,18 29.5,18 19.534963,18 19.777956,18.436226 25.558447,10.924044 30.506828,4.4932514 32.571496,3.8768003 43.25,5.641848 55.198406,7.6167976 47.652737,40.001319 35.25,39.976265 23.5,39.952529 23.5,39.952529 29.398873,37.527392 z M 0.02277009,8.75 C 0,0 0,0 23.5,0 45.820738,0 47,0.09419859 47,1.8771628 c 0,1.9938941 -5.116426,2.0509165 -12.642596,0.1409011 -1.728428,-0.4386459 -4.878428,-0.4148763 -7,0.052821 C 25.235832,2.538583 20.970006,3.4083678 17.877791,4.0037403 10.810742,5.364424 3.8937878,9.6877565 1.7184378,14.103887 0.04554019,17.5 0.04554019,17.5 0.02277009,8.75 z"
       id="path2999"
       inkscape:connector-curvature="0" />
    <path
       style="fill:#222222"
       d="m 16.241874,39.017005 c -3.834079,-1.627557 -4.843338,-5.329936 -3.013091,-11.053263 0.87202,-2.726875 1.349795,-5.859257 1.061723,-6.960848 C 13.934323,19.64085 14.258327,19 15.303137,19 16.148156,19 19.181013,15.780761 22.042818,11.846136 27.2461,4.6922712 27.2461,4.6922712 22.045874,5.3081611 6.733494,7.1216859 -1.6531637,17.03488 3.5737363,27.14259 4.4392913,28.816389 4.9224726,30.410861 4.6474726,30.685861 3.5403065,31.793027 0.65446138,24.21188 0.57978487,20 0.34094199,6.5288626 21.112481,-1.19113 44.75,3.5836079 50.354335,4.715674 46.343323,5.856301 38.663843,5.3143521 30.327686,4.7260608 30.327686,4.7260608 25.663843,10.787074 19.76325,18.455337 19.521081,18 29.5,18 c 5,0 8.5,0.411765 8.5,1 0,0.55 -2.1375,1.003911 -4.75,1.008692 -12.707092,0.02325 -14.923403,0.804625 -17.183383,6.058091 C 11.076535,37.66654 15.062902,40.484142 29.5,35.561625 c 8.672849,-2.957121 9.691974,-2.454496 2.084774,1.028195 -6.467344,2.960848 -12.017412,3.838847 -15.3429,2.427185 z"
       id="path2997"
       inkscape:connector-curvature="0" />
  </g>
</svg>
